<?xml version="1.0" encoding="utf-8"?>
<!-- Generator: Adobe Illustrator 26.5.0, SVG Export Plug-In . SVG Version: 6.00 Build 0)  -->
<svg version="1.1" id="Layer_1" xmlns="http://www.w3.org/2000/svg" xmlns:xlink="http://www.w3.org/1999/xlink" x="0px" y="0px"
	 viewBox="0 0 165.9 71.3" style="enable-background:new 0 0 165.9 71.3;" xml:space="preserve">
<style type="text/css">
	.st0{fill:#616C72;}
	.st1{fill:#D42027;}
	.st2{fill:#231F20;}
</style>
<g>
	<g>
		<path class="st0" d="M33.5,24.3c-1.1-0.4-2.3-0.7-3.6-0.7c-0.1,0-0.3,0-0.4,0c-0.8,0-1.6,0.2-2.4,0.4l3.1-19.4l2.7,16.2L33.5,24.3
			z"/>
		<path class="st0" d="M39.5,36.8c0.3-1,0.5-2,0.5-3.1c0-0.1,0-0.3,0-0.4c0-1-0.2-2-0.6-3l1.9,0.3l18.1,2.9L39.5,36.8z"/>
		<g>
			<path class="st0" d="M33.3,43.2l-3,19.2l-2.9-17.2l-0.3-1.9c0.7,0.2,1.4,0.3,2.2,0.4c0.2,0,0.5,0,0.7,0
				C31.1,43.7,32.2,43.5,33.3,43.2z"/>
			<path class="st0" d="M20,35.3c0.1,0.5,0.2,0.9,0.3,1.3l-0.9-0.2L1.1,33.6l19.4-3.3c-0.4,1-0.6,2.2-0.6,3.4
				C19.9,34.2,19.9,34.8,20,35.3z"/>
		</g>
		<path class="st1" d="M23.5,41.4L5.9,62.3l13.4-25.8l0.6-1.2c0.1,0.5,0.2,0.9,0.3,1.3C20.9,38.5,22,40.1,23.5,41.4z"/>
		<path d="M29.2,43.7l-1.9,1.5L5.9,62.3l17.5-20.9c1,0.9,2.3,1.5,3.6,1.9C27.8,43.5,28.5,43.7,29.2,43.7z"/>
		<path class="st1" d="M54.9,3.4L41.3,30.6L40,33.3c0-1-0.2-2-0.6-3c-0.6-1.8-1.8-3.3-3.2-4.5L54.9,3.4z"/>
		<path d="M54.9,3.4L36.1,25.8c-0.8-0.6-1.7-1.1-2.6-1.5c-1.1-0.4-2.3-0.7-3.6-0.7c-0.1,0-0.3,0-0.4,0l3.4-2.7L54.9,3.4z"/>
		<path class="st1" d="M9,31.7l-2.2,0.4c0.8-11.6,10-21,21.7-22.3L28,13.1C18,13.9,9.7,21.5,9,31.7z"/>
		<path class="st1" d="M9,35.5c0.3,3.9,1.7,7.8,4.1,11.2l-0.9,1.9C9.1,44.7,7.1,40,6.8,35L9,35.5z"/>
		<path class="st1" d="M28.6,56l0.3,1.9c-4-0.5-7.7-2.1-11-4.3l1.4-1.2C22,54.1,25,55.4,28.6,56z"/>
		<path class="st1" d="M36.8,57.7c-1.4,0.3-2.9,0.4-4.5,0.4c-0.3,0-0.5,0-0.8,0l0.4-1.7c1.5,0.1,3.1,0.1,4.8,0h0L36.8,57.7z"/>
		<path class="st1" d="M42.5,12.2l-3,2.3c-2.2-0.9-4.6-1.4-7-1.5l-0.6-3.4C35.7,9.7,39.3,10.6,42.5,12.2z"/>
		<path class="st1" d="M52.6,21.8l-3.3,0.1c-0.5-0.7-1.2-1.4-1.8-2.1l1.3-3C50.3,18.4,51.6,20,52.6,21.8z"/>
		<path class="st1" d="M36.5,33.8c0,3.6-2.9,6.5-6.5,6.5c-1.3,0-2.5-0.4-3.6-1.1l0.6-0.4c0.9,0.4,1.8,0.7,2.9,0.7
			c3.4,0,6.1-2.6,6.1-5.8s-2.7-5.9-6.1-5.9c-1.4,0-2.6,0.4-3.6,1.1l-0.4-0.1c1.1-0.9,2.5-1.4,4.1-1.4C33.6,27.4,36.5,30.3,36.5,33.8
			z"/>
	</g>
	<rect x="41.1" y="56.9" class="st1" width="123.4" height="0.4"/>
	<g>
		<g>
			<rect x="45.4" y="45.1" class="st0" width="0.9" height="1"/>
			<path class="st0" d="M48,50.2h-4.4c-0.5,0-0.9-0.1-1.2-0.4s-0.4-0.6-0.4-1v-1.2h-0.9V49c0,0.4,0.1,0.8,0.3,1.1s0.5,0.6,0.8,0.7
				S43,51,43.4,51h5.4v-4.8H48V50.2z"/>
			<rect x="43.5" y="45.1" class="st0" width="0.9" height="1"/>
			<path class="st0" d="M54.1,47.2c0.3-0.7,0.4-1.4,0.4-2.2v-1.7h-0.9v1.7c0,0.7-0.1,1.3-0.2,1.8c-0.8-0.5-1.8-1-3-1.3v0.9
				c1,0.3,1.9,0.7,2.6,1.2c-0.6,1-1.7,2-3.2,2.8l0.4,0.8h5.1c0.1-0.3,0.1-0.7,0.1-1c0-0.5-0.1-1-0.3-1.6S54.5,47.5,54.1,47.2z
				 M54.5,50.2H51c1.2-0.7,2-1.5,2.6-2.4c0.3,0.3,0.6,0.7,0.7,1.1c0.1,0.4,0.2,0.7,0.2,1.1C54.5,50.1,54.5,50.2,54.5,50.2z"/>
			<path class="st0" d="M58.9,46.1c-0.5,0-1,0.1-1.4,0.3c-0.4,0.2-0.7,0.5-0.9,0.9c-0.2,0.4-0.3,0.8-0.3,1.2c0,0.5,0.1,0.9,0.3,1.2
				s0.5,0.7,0.8,0.9s0.8,0.3,1.3,0.3H59l0.3-0.8h-0.6c-0.5,0-0.9-0.2-1.2-0.5s-0.4-0.7-0.4-1.1c0-0.5,0.1-0.9,0.4-1.3
				c0.3-0.3,0.7-0.5,1.2-0.5c0.3,0,0.6,0,0.9,0.1v4c0,0.5-0.2,0.8-0.4,1.1c-0.3,0.2-0.7,0.4-1.3,0.5l0.4,0.8
				c0.8-0.1,1.3-0.4,1.7-0.8c0.4-0.4,0.6-0.9,0.6-1.6v-4.7c-0.1,0-0.2,0-0.3,0C59.7,46.2,59.3,46.1,58.9,46.1z"/>
			<rect x="65.8" y="44.2" class="st0" width="0.9" height="1"/>
			<rect x="67.7" y="44.2" class="st0" width="0.9" height="1"/>
			<path class="st0" d="M81,43.4v6.9h-1.3c-0.6,0-1-0.2-1.2-0.7c0.1-0.2,0.1-0.4,0.1-0.6v-5.6h-0.9v5.5c0,0.4-0.1,0.7-0.3,1
				c-0.2,0.2-0.5,0.4-0.9,0.4h-0.2c-0.6,0-0.9-0.2-1.2-0.6c0.2-0.3,0.2-0.7,0.2-1.1c0-0.4-0.1-0.8-0.3-1.2s-0.5-0.7-0.9-0.9
				s-0.9-0.3-1.4-0.3c-0.4,0-1,0.1-1.7,0.2v3.9h-0.8c-0.6,0-1-0.2-1.2-0.6C69,49.3,69,49,69,48.7v-2.4c-0.8-0.2-1.3-0.2-1.8-0.2
				c-0.5,0-1,0.1-1.4,0.3c-0.4,0.2-0.7,0.5-0.9,0.9c-0.2,0.4-0.3,0.8-0.3,1.2c0,0.4,0.1,0.7,0.2,1c0.1,0.3,0.3,0.5,0.6,0.7h-1.6
				h-0.2c-0.3,0-0.5-0.1-0.6-0.2s-0.2-0.4-0.2-0.7v-6H62v6c0,0.5,0.1,0.9,0.4,1.2s0.7,0.5,1.2,0.5h0.4h2.9c0.8,0,1.3-0.2,1.7-0.8
				c0.4,0.5,0.9,0.8,1.6,0.8h2.8c0.8,0,1.3-0.3,1.8-0.8c0.4,0.5,0.9,0.8,1.6,0.8h0.4c0.7,0,1.2-0.3,1.6-0.8c0.4,0.5,0.9,0.8,1.6,0.8
				h2.1v-7.7L81,43.4L81,43.4z M68.2,48.7c0,0.4-0.1,0.8-0.3,1s-0.5,0.5-0.8,0.6c-0.5,0-0.8-0.2-1.1-0.5s-0.4-0.7-0.4-1.1
				c0-0.5,0.1-0.9,0.4-1.3c0.3-0.3,0.7-0.5,1.2-0.5c0.3,0,0.6,0,1,0.1V48.7z M74,49.8c-0.3,0.3-0.7,0.4-1.2,0.4h-1V47
				c0.3-0.1,0.6-0.1,0.9-0.1c0.6,0,1,0.2,1.3,0.5c0.3,0.3,0.4,0.7,0.4,1.2C74.4,49.1,74.2,49.5,74,49.8z"/>
		</g>
		<g>
			<path class="st2" d="M89.9,46.1c-0.5,0-1,0.1-1.4,0.3c-0.4,0.2-0.7,0.5-0.9,0.9c-0.2,0.4-0.3,0.8-0.3,1.2c0,0.5,0.1,0.9,0.3,1.2
				s0.5,0.7,0.8,0.9s0.8,0.3,1.3,0.3h0.3l0.4-0.8h-0.6c-0.3,0-0.6-0.1-0.8-0.2c-0.2-0.2-0.4-0.3-0.5-0.6c-0.1-0.2-0.2-0.5-0.2-0.8
				c0-0.5,0.1-0.9,0.4-1.3c0.3-0.3,0.7-0.5,1.2-0.5c0.3,0,0.6,0,0.9,0.1v5h-3.3c-0.5,0-0.9-0.1-1.2-0.4s-0.4-0.6-0.4-1v-2.1H85v2.2
				c0,0.6,0.2,1.1,0.6,1.5s1,0.6,1.7,0.6h4.3v-6.5l-0.3,0C90.7,46.2,90.2,46.1,89.9,46.1z"/>
			<rect x="90.2" y="44.2" class="st2" width="0.9" height="1"/>
			<rect x="88.3" y="44.2" class="st2" width="0.9" height="1"/>
			<rect x="98.8" y="44.2" class="st2" width="0.9" height="1"/>
			<rect x="100.7" y="44.2" class="st2" width="0.9" height="1"/>
			<rect x="99.8" y="42.6" class="st2" width="0.9" height="1"/>
			<path class="st2" d="M106.6,50.2h-1.3c-0.7,0-1.1-0.2-1.4-0.7c0.1-0.2,0.1-0.4,0.1-0.6v-3.2h-0.9v3.1c0,0.4-0.1,0.7-0.3,1
				c-0.2,0.2-0.5,0.4-0.9,0.4c-0.2,0-0.4-0.1-0.7-0.2c-0.2-0.1-0.4-0.3-0.5-0.5s-0.2-0.4-0.2-0.6v-2.8h-0.9v2.7c0,0.4-0.1,0.7-0.4,1
				s-0.5,0.4-0.9,0.4h-0.8v-4h-0.9v4h-1.3l0,0l0,0c-0.3,0-0.5-0.1-0.7-0.2s-0.3-0.3-0.4-0.5v-3.3h-0.9v4.8c0,0.5-0.1,0.9-0.3,1.1
				s-0.6,0.4-1.1,0.4l0.3,0.8c1.3-0.2,1.9-1,1.9-2.4v-0.4c0.3,0.3,0.7,0.5,1.2,0.5l0,0l0,0h3.1c0.4,0,0.7-0.1,1-0.3s0.5-0.4,0.7-0.7
				c0.4,0.6,1,0.9,1.8,0.9c0.7,0,1.2-0.3,1.6-0.8c0.2,0.3,0.4,0.5,0.7,0.6s0.6,0.2,1,0.2h2.1v-7.7h-0.9L106.6,50.2L106.6,50.2z"/>
			<rect x="109.2" y="43.4" class="st2" width="0.9" height="7.7"/>
			<rect x="119.8" y="44.2" class="st2" width="0.9" height="1"/>
			<path class="st2" d="M124.6,50.2h-1.3c-0.6,0-1-0.2-1.2-0.6c0.1-0.3,0.2-0.6,0.2-0.9v-2.4c-0.8-0.2-1.3-0.2-1.8-0.2
				c-0.5,0-1,0.1-1.4,0.3c-0.4,0.2-0.7,0.5-0.9,0.9c-0.2,0.4-0.3,0.8-0.3,1.2c0,0.4,0.1,0.7,0.2,1c0.1,0.3,0.3,0.5,0.6,0.7h-2.9
				c-0.6,0-0.9-0.1-1.2-0.4c-0.3-0.2-0.4-0.6-0.4-1v-1.2h-0.9V49c0,0.4,0.1,0.8,0.3,1.1s0.5,0.6,0.8,0.7s0.8,0.3,1.2,0.3h4.4
				c0.8,0,1.3-0.2,1.7-0.8c0.4,0.5,0.9,0.8,1.6,0.8h2.1v-7.7h-0.9L124.6,50.2L124.6,50.2z M121.4,48.7c0,0.4-0.1,0.8-0.3,1
				s-0.5,0.5-0.8,0.6c-0.5,0-0.8-0.2-1.1-0.5s-0.4-0.7-0.4-1.1c0-0.5,0.1-0.9,0.4-1.3c0.3-0.3,0.7-0.5,1.2-0.5c0.3,0,0.6,0,1,0.1
				C121.4,47,121.4,48.7,121.4,48.7z"/>
			<path class="st2" d="M137.6,49.5l-0.6-1.4c-0.2-0.6-0.6-1.1-1-1.5c-0.4-0.4-0.9-0.5-1.6-0.5c-0.4,0-0.7,0-0.9,0.1
				c-0.2,0.1-0.5,0.2-0.9,0.3l0.3,0.7c0.4-0.2,0.8-0.3,1.2-0.3c0.5,0,0.9,0.1,1.2,0.3c0.3,0.2,0.6,0.6,0.8,1l0.6,1.4l0,0.1
				c-0.8,0.3-1.7,0.5-2.7,0.5h-2h-1v-3.9c-0.1,0-0.2,0-0.3,0c-0.6-0.1-1.1-0.2-1.4-0.2c-0.5,0-1,0.1-1.4,0.3
				c-0.4,0.2-0.7,0.5-0.9,0.9c-0.2,0.4-0.3,0.8-0.3,1.2c0,0.5,0.1,0.9,0.3,1.2s0.5,0.7,0.8,0.9c0.4,0.2,0.8,0.3,1.3,0.3h0.3l0.4-0.8
				h-0.6c-0.5,0-0.9-0.2-1.1-0.5c-0.3-0.3-0.4-0.7-0.4-1.1c0-0.5,0.1-0.9,0.4-1.3c0.3-0.3,0.7-0.5,1.2-0.5c0.3,0,0.6,0,0.9,0.1v4
				c0,0.5-0.1,0.8-0.4,1.1s-0.7,0.4-1.4,0.5l0.4,0.8c0.8-0.1,1.3-0.4,1.7-0.8s0.6-0.9,0.6-1.6h1h2c0.5,0,1-0.1,1.6-0.2
				c0.5-0.1,1-0.3,1.5-0.5c0.4,0.4,0.8,0.7,1.4,0.7l0.3-0.8C138.2,50.2,137.8,50,137.6,49.5z"/>
			<rect x="134.1" y="52.2" class="st2" width="0.9" height="1"/>
			<rect x="142.2" y="44.2" class="st2" width="0.9" height="1"/>
			<rect x="144.1" y="44.2" class="st2" width="0.9" height="1"/>
			<path class="st2" d="M149.9,46.6h-2.1l3.1-3.2h-1.1l-2.9,3.2l0.4,0.8h2.6c0.6,0,1.1,0.1,1.4,0.4s0.4,0.6,0.4,1.1
				c0,0.4-0.1,0.9-0.3,1.3h-4.9h-0.2c-0.3,0-0.5-0.1-0.6-0.2s-0.2-0.4-0.2-0.7l0-3l-0.5-0.1c-0.5-0.1-0.9-0.1-1.2-0.1
				c-0.5,0-1,0.1-1.4,0.3c-0.4,0.2-0.7,0.5-0.9,0.9c-0.2,0.4-0.3,0.8-0.3,1.2c0,0.5,0.1,0.9,0.3,1.2c0.2,0.4,0.5,0.7,0.8,0.9
				c0.4,0.2,0.8,0.3,1.3,0.3h0.4l0.4-0.8h-0.7c-0.5,0-0.9-0.2-1.1-0.5c-0.3-0.3-0.4-0.7-0.4-1.1c0-0.5,0.1-0.9,0.4-1.3
				c0.3-0.3,0.7-0.5,1.2-0.5c0.2,0,0.5,0,0.9,0.1v2.4c0,0.5,0.1,0.9,0.4,1.2s0.6,0.5,1.2,0.5h0.4h5.5c0.4-0.9,0.6-1.6,0.6-2.2
				c0-0.7-0.2-1.2-0.6-1.7C151.4,46.8,150.8,46.6,149.9,46.6z"/>
			<rect x="161.1" y="44.2" class="st2" width="0.9" height="1"/>
			<rect x="160.2" y="42.6" class="st2" width="0.9" height="1"/>
			<path class="st2" d="M163.6,45.8v4.5h-1c-0.2,0-0.5,0-0.7-0.2s-0.4-0.2-0.6-0.4s-0.2-0.4-0.2-0.6v-2.9h-0.9v2.7
				c0,0.4-0.1,0.7-0.4,1s-0.5,0.4-0.9,0.4H158v-4h-0.9v4h-1.3l0,0l0,0c-0.3,0-0.5-0.1-0.7-0.2c-0.2-0.1-0.3-0.3-0.4-0.5v-3.3h-0.9
				v4.8c0,0.5-0.1,0.9-0.3,1.1s-0.6,0.4-1.1,0.4l0.4,0.8c1.3-0.2,1.9-1,1.9-2.4v-0.4c0.3,0.3,0.7,0.5,1.1,0.5l0,0l0,0h3.1
				c0.4,0,0.7-0.1,1-0.3s0.5-0.4,0.7-0.7c0.2,0.3,0.5,0.5,0.8,0.7c0.3,0.2,0.7,0.2,1.1,0.2h1.8v-5.2L163.6,45.8L163.6,45.8z"/>
			<rect x="159.2" y="44.2" class="st2" width="0.9" height="1"/>
		</g>
	</g>
	<g>
		<path class="st2" d="M48.8,64.5C48,64.7,48,64.8,48,65.4v1c0,0.4,0,0.8,0.1,1.1c-0.7,0.2-1.8,0.4-2.7,0.4c-2.6,0-4.3-1.5-4.3-3.9
			c0-2.7,2.2-4,4.5-4c1.2,0,2,0.2,2.3,0.2c0,0.4,0.1,1.2,0.2,1.7l-0.2,0c-0.2-0.9-0.5-1.4-1.4-1.6c-0.3-0.1-0.7-0.1-1.2-0.1
			c-2,0-3.2,1.3-3.2,3.5c0,1.8,0.9,3.8,3.4,3.8c0.4,0,0.9-0.1,1.2-0.2c0.3-0.2,0.4-0.3,0.4-0.9v-1c0-0.8-0.1-0.9-1.1-1v-0.2h2.8
			L48.8,64.5L48.8,64.5z"/>
		<path class="st2" d="M52.9,62.4c1.7,0,2.9,1.2,2.9,2.7c0,1.8-1.4,2.8-2.8,2.8c-1.7,0-2.9-1.2-2.9-2.8
			C50.1,63.4,51.5,62.4,52.9,62.4z M52.8,62.6c-1,0-1.8,0.8-1.8,2.3c0,1.6,0.8,2.7,2.1,2.7c1,0,1.8-0.6,1.8-2.4
			C54.9,63.8,54.1,62.6,52.8,62.6z"/>
		<path class="st2" d="M61.5,66.3c-0.1,0.4-0.3,1.2-0.4,1.4h-4.3v-0.1c0.9-0.1,1-0.2,1-1v-3.1c0-0.7-0.1-0.8-0.8-0.9v-0.1h2.5v0.1
			c-0.8,0.1-0.9,0.2-0.9,0.9v3.2c0,0.4,0.1,0.6,0.3,0.6c0.2,0.1,0.4,0.1,0.8,0.1c0.7,0,0.9-0.1,1.2-0.3c0.2-0.2,0.3-0.4,0.5-0.8
			L61.5,66.3z"/>
		<path class="st2" d="M66.4,63.8c-0.1-0.3-0.2-0.6-0.3-0.7c-0.1-0.2-0.3-0.3-0.9-0.3h-0.9c-0.3,0-0.3,0-0.3,0.3V65h1.2
			c0.7,0,0.8-0.1,0.9-0.7h0.2V66H66c-0.2-0.6-0.2-0.7-0.9-0.7h-1.2v1.4c0,0.7,0,0.8,0.9,0.9v0.1h-2.6v-0.1c0.8-0.1,0.8-0.2,0.8-0.9
			v-3.1c0-0.7-0.1-0.8-0.8-0.9v-0.1h3c0.4,0,0.8,0,1.2,0c0,0.2,0,0.8,0.1,1.3L66.4,63.8z"/>
		<path class="st2" d="M75.9,66.1c-0.1,0.4-0.3,1.3-0.4,1.7H70v-0.1c1.1-0.1,1.2-0.2,1.2-1.2v-4.8c0-1,0-1.1-1-1.2v-0.1h3.5
			c1.1,0,1.4,0,1.7,0c0,0.4,0.1,1.2,0.1,1.6l-0.2,0c-0.1-0.3-0.3-0.7-0.4-0.9c-0.2-0.3-0.4-0.3-1.1-0.3h-1.3c-0.3,0-0.3,0-0.3,0.4
			v2.7h1.5c0.8,0,0.9-0.2,1.1-0.9h0.2v2.2h-0.2c-0.2-0.8-0.3-0.9-1.1-0.9H72v2.7c0,0.8,0.3,0.8,1,0.8h1.2c0.6,0,0.8-0.1,1.1-0.6
			c0.2-0.3,0.3-0.5,0.5-0.8L75.9,66.1z"/>
		<path class="st2" d="M80.2,67.8v-0.1l0.2,0c0.3-0.1,0.5-0.2,0.3-0.5l-0.6-1.3h-1.8L78,66.9c-0.2,0.6,0,0.6,0.4,0.7l0.2,0v0.1h-2
			v-0.1c0.5-0.1,0.7-0.2,1.1-1l1.8-4.2l0.2,0l1.9,4.5c0.2,0.6,0.4,0.7,0.9,0.7v0.1L80.2,67.8L80.2,67.8z M79.3,63.5l-0.8,1.9h1.6
			L79.3,63.5z"/>
		<path class="st2" d="M86.2,63.8c-0.3-0.7-0.6-1.2-1.4-1.2c-0.6,0-0.9,0.4-0.9,0.9c0,0.6,0.5,0.9,1.1,1.1l0.2,0.1
			c0.7,0.3,1.4,0.7,1.4,1.6c0,1-0.9,1.6-2,1.6c-0.7,0-1.2-0.2-1.4-0.3c-0.1-0.2-0.2-0.7-0.3-1.3l0.2,0c0.2,0.8,0.8,1.4,1.7,1.4
			c0.5,0,1-0.3,1-0.9c0-0.7-0.5-0.9-1-1.2l-0.3-0.2c-0.7-0.4-1.3-0.8-1.3-1.5c0-0.8,0.7-1.4,1.8-1.4c0.5,0,0.9,0.1,1.2,0.2
			c0,0.3,0.1,0.9,0.2,1.2L86.2,63.8z"/>
		<path class="st2" d="M92.4,63.8c-0.1-0.2-0.1-0.4-0.2-0.6c-0.2-0.3-0.4-0.4-0.9-0.4h-0.8v3.9c0,0.7,0.1,0.8,0.9,0.9v0.1h-2.7v-0.1
			c0.8-0.1,0.9-0.2,0.9-0.9v-3.9h-0.8c-0.6,0-0.7,0.2-0.9,0.5c-0.1,0.2-0.2,0.3-0.2,0.5h-0.2c0-0.4,0.1-1.1,0.1-1.5h0.2
			c0.1,0.2,0.2,0.2,0.5,0.2H92c0.2,0,0.3,0,0.4-0.2h0.1c0,0.3,0,1,0,1.5L92.4,63.8z"/>
		<path class="st0" d="M103.2,66c-0.1,0.4-0.5,1.4-0.7,1.7c-0.3,0.1-1.2,0.3-2,0.3c-3,0-4.4-1.9-4.4-3.9c0-2.4,1.8-4,4.6-4
			c1,0,1.7,0.2,2.1,0.2c0.1,0.5,0.1,1.2,0.2,1.7l-0.2,0c-0.2-0.7-0.4-1.2-1.1-1.5c-0.4-0.1-0.9-0.2-1.4-0.2c-2.2,0-3.2,1.7-3.2,3.5
			c0,2.3,1.2,3.9,3.4,3.9c1.4,0,1.9-0.7,2.4-1.7L103.2,66z"/>
		<path class="st0" d="M107.3,62.4c1.7,0,2.9,1.2,2.9,2.7c0,1.8-1.4,2.8-2.8,2.8c-1.7,0-2.9-1.2-2.9-2.8
			C104.4,63.4,105.8,62.4,107.3,62.4z M107.1,62.6c-1,0-1.8,0.8-1.8,2.3c0,1.6,0.8,2.7,2.1,2.7c1,0,1.8-0.6,1.8-2.4
			C109.2,63.8,108.4,62.6,107.1,62.6z"/>
		<path class="st0" d="M117.4,62.6c-0.7,0.1-0.8,0.3-0.9,0.7c0,0.2,0,0.6,0,1.4v3.1h-0.2l-3.9-4.2v1.9c0,0.8,0,1.1,0.1,1.3
			c0,0.5,0.2,0.6,0.9,0.8v0.1h-2.2v-0.1c0.6-0.1,0.8-0.2,0.8-0.8c0-0.3,0.1-0.6,0.1-1.3v-2c0-0.2,0-0.3-0.1-0.4
			c-0.2-0.3-0.5-0.4-0.9-0.5v-0.1h1.5l3.6,3.9v-1.7c0-0.8,0-1.1,0-1.4c0-0.5-0.1-0.6-0.9-0.7v-0.1h2.2L117.4,62.6L117.4,62.6z"/>
		<path class="st0" d="M123.2,63.8c-0.1-0.2-0.1-0.4-0.2-0.6c-0.2-0.3-0.4-0.4-0.9-0.4h-0.8v3.9c0,0.7,0.1,0.8,0.9,0.9v0.1h-2.7
			v-0.1c0.8-0.1,0.9-0.2,0.9-0.9v-3.9h-0.8c-0.6,0-0.7,0.2-0.9,0.5c-0.1,0.2-0.2,0.3-0.2,0.5h-0.2c0-0.4,0.1-1.1,0.1-1.5h0.2
			c0.1,0.2,0.2,0.2,0.5,0.2h3.7c0.2,0,0.3,0,0.4-0.2h0.1c0,0.3,0,1,0,1.5L123.2,63.8z"/>
		<path class="st0" d="M129.8,67.8l-0.3,0c-0.7,0-1.1-0.2-1.4-0.6c-0.3-0.4-0.7-1-0.9-1.3c-0.2-0.4-0.3-0.4-0.8-0.4H126v1.3
			c0,0.7,0.1,0.8,0.9,0.9v0.1h-2.6v-0.1c0.8-0.1,0.8-0.2,0.8-0.9v-3.1c0-0.7-0.1-0.8-0.8-0.9v-0.1h2.4c0.6,0,1,0.1,1.4,0.3
			c0.3,0.2,0.6,0.5,0.6,1.1c0,0.8-0.6,1.2-1.1,1.4c0.1,0.2,0.5,0.8,0.8,1.2c0.3,0.4,0.5,0.6,0.7,0.9c0.3,0.3,0.5,0.4,0.7,0.4
			L129.8,67.8z M126.5,65.2c0.3,0,0.7,0,0.9-0.2c0.3-0.2,0.5-0.6,0.5-1c0-0.9-0.6-1.2-1.3-1.2c-0.5,0-0.6,0.1-0.6,0.5v1.9
			L126.5,65.2L126.5,65.2z"/>
		<path class="st0" d="M133.4,67.8v-0.1l0.2,0c0.4-0.1,0.5-0.2,0.4-0.5l-0.6-1.3h-1.8l-0.4,1.1c-0.2,0.6,0,0.6,0.4,0.7l0.2,0v0.1h-2
			v-0.1c0.5-0.1,0.7-0.2,1.1-1l1.8-4.2l0.2,0l1.9,4.5c0.2,0.6,0.4,0.7,0.9,0.7v0.1L133.4,67.8L133.4,67.8z M132.5,63.5l-0.8,1.9h1.6
			L132.5,63.5z"/>
		<path class="st0" d="M141.4,66.4c-0.1,0.3-0.4,1-0.5,1.3c-0.3,0.1-1,0.2-1.6,0.2c-2.1,0-3.1-1.3-3.1-2.7c0-1.8,1.5-2.8,3.3-2.8
			c0.7,0,1.4,0.1,1.6,0.2c0,0.4,0.1,0.9,0.2,1.3l-0.2,0c-0.3-1.1-1.1-1.3-1.9-1.3c-1.4,0-2.1,1.1-2.1,2.4c0,1.5,0.8,2.6,2.2,2.6
			c0.9,0,1.4-0.4,1.8-1.3L141.4,66.4z"/>
		<path class="st0" d="M147.3,63.8c-0.1-0.2-0.1-0.4-0.2-0.6c-0.2-0.3-0.4-0.4-0.9-0.4h-0.8v3.9c0,0.7,0.1,0.8,0.9,0.9v0.1h-2.6
			v-0.1c0.8-0.1,0.9-0.2,0.9-0.9v-3.9h-0.8c-0.6,0-0.7,0.2-0.9,0.5c-0.1,0.2-0.2,0.3-0.2,0.5h-0.2c0-0.4,0.1-1.1,0.1-1.5h0.1
			c0.1,0.2,0.2,0.2,0.5,0.2h3.7c0.2,0,0.3,0,0.4-0.2h0.1c0,0.3,0,1,0,1.5L147.3,63.8z"/>
		<path class="st0" d="M148.4,67.8v-0.1c0.8-0.1,0.8-0.2,0.8-0.9v-3.2c0-0.7-0.1-0.8-0.8-0.9v-0.1h2.5v0.1c-0.8,0.1-0.9,0.2-0.9,0.9
			v3.2c0,0.7,0.1,0.8,0.9,0.9v0.1H148.4z"/>
		<path class="st0" d="M158.2,62.6c-0.7,0.1-0.8,0.3-0.9,0.7c0,0.2,0,0.6,0,1.4v3.1h-0.2l-3.9-4.2v1.9c0,0.8,0,1.1,0.1,1.3
			c0,0.5,0.2,0.6,0.9,0.8v0.1H152v-0.1c0.6-0.1,0.8-0.2,0.8-0.8c0-0.3,0.1-0.6,0.1-1.3v-2c0-0.2,0-0.3-0.1-0.4
			c-0.2-0.3-0.5-0.4-0.9-0.5v-0.1h1.5l3.6,3.9v-1.7c0-0.8,0-1.1,0-1.4c0-0.5-0.1-0.6-0.9-0.7v-0.1h2.2L158.2,62.6L158.2,62.6z"/>
		<path class="st0" d="M164.9,65.4c-0.6,0.1-0.6,0.2-0.6,0.7v0.7c0,0.3,0,0.6,0.1,0.7c-0.6,0.1-1.3,0.3-1.9,0.3
			c-1.9,0-3.1-1.1-3.1-2.7c0-1.9,1.5-2.8,3.3-2.8c0.7,0,1.3,0.1,1.6,0.2c0,0.3,0.1,0.9,0.1,1.4l-0.2,0c-0.2-0.9-0.8-1.3-1.9-1.3
			c-1.2,0-2.1,0.9-2.1,2.4c0,1.3,0.7,2.6,2.3,2.6c0.6,0,0.9-0.2,0.9-0.8v-0.8c0-0.6-0.1-0.6-0.9-0.7v-0.1h2.3L164.9,65.4L164.9,65.4
			z"/>
	</g>
</g>
</svg>
