<?xml version="1.0" encoding="utf-8"?>
<!-- Generator: Adobe Illustrator 28.1.0, SVG Export Plug-In . SVG Version: 6.00 Build 0)  -->
<svg version="1.1" id="Layer_1" xmlns="http://www.w3.org/2000/svg" xmlns:xlink="http://www.w3.org/1999/xlink" x="0px" y="0px"
	 viewBox="0 0 80 80" style="enable-background:new 0 0 80 80;" xml:space="preserve">
<style type="text/css">
	.st0{fill:#D42027;}
	.st1{fill:#F8F8F8;}
</style>
<path class="st0" d="M72.4,78.8H7.5c-3.5,0-6.3-2.8-6.3-6.3V7.6c0-3.5,2.8-6.3,6.3-6.3h64.9c3.5,0,6.3,2.8,6.3,6.3v64.9
	C78.7,76,75.9,78.8,72.4,78.8z"/>
<g>
	<path class="st1" d="M43.5,30.7c-1.2-0.4-2.5-0.8-3.9-0.8c-0.1,0-0.3,0-0.4,0c-0.9,0-1.7,0.2-2.6,0.4l3.4-21.1l2.9,17.6L43.5,30.7z
		"/>
	<path class="st1" d="M50,44.3c0.3-1.1,0.5-2.2,0.5-3.4c0-0.1,0-0.3,0-0.4c0-1.1-0.2-2.2-0.7-3.3l2.1,0.3l19.7,3.2L50,44.3z"/>
	<g>
		<path class="st1" d="M43.3,51.3L40,72.2l-3.2-18.7l-0.3-2.1c0.8,0.2,1.5,0.3,2.4,0.4c0.2,0,0.5,0,0.8,0
			C40.9,51.8,42.1,51.6,43.3,51.3z"/>
		<path class="st1" d="M28.8,42.7c0.1,0.5,0.2,1,0.3,1.4l-1-0.2l-19.9-3l21.1-3.6c-0.4,1.1-0.7,2.4-0.7,3.7
			C28.7,41.5,28.7,42.1,28.8,42.7z"/>
	</g>
	<path class="st1" d="M32,48.8L15,69.1L28,44l0.6-1.3c0.1,0.5,0.2,1,0.3,1.4C29.7,45.9,30.7,47.4,32,48.8z"/>
	<path class="st1" d="M38.8,51.8l-2.1,1.6L14.6,71.1l18.1-21.6c1.1,0.9,2.4,1.5,3.7,1.9C37.3,51.6,38,51.8,38.8,51.8z"/>
	<path class="st1" d="M65.7,10L52,37.5l-1.4,2.9c0-1.1-0.2-2.2-0.7-3.3c-0.6-1.8-1.8-3.3-3.1-4.6L65.7,10z"/>
	<path class="st1" d="M65,9.4L46,32.1c-0.8-0.5-1.6-1-2.5-1.4c-1.2-0.4-2.5-0.8-3.9-0.8h-0.4l3.7-2.9L65,9.4z"/>
	<path class="st1" d="M16.8,38.7l-2.4,0.4C15.3,26.6,25.3,16.3,38,14.9l-0.5,3.6C26.6,19.4,17.6,27.6,16.8,38.7z"/>
	<path class="st1" d="M16.8,42.9c0.3,4.2,1.9,8.5,4.5,12.2l-1,2.1c-3.4-4.2-5.6-9.4-5.9-14.8L16.8,42.9z"/>
	<path class="st1" d="M38.2,65.2l0.3,2.1c-4.4-0.5-8.4-2.3-12-4.7l1.5-1.3C31,63.1,34.2,64.5,38.2,65.2z"/>
	<path class="st1" d="M47.1,67c-1.5,0.3-3.2,0.4-4.9,0.4c-0.3,0-0.5,0-0.9,0l0.4-1.9c1.6,0.1,3.4,0.1,5.2,0l0,0L47.1,67z"/>
	<path class="st1" d="M53.3,17.5L50,20c-2.4-1-5-1.5-7.6-1.6l-0.7-3.7C45.9,14.8,49.8,15.8,53.3,17.5z"/>
	<path class="st1" d="M64.3,28l-3.6,0.1c-0.5-0.8-1.3-1.5-2-2.3l1.4-3.3C61.8,24.3,63.2,26,64.3,28z"/>
	<path class="st1" d="M46.8,41c0,3.9-3.2,7.1-7.1,7.1c-1.4,0-2.7-0.4-3.9-1.2l0.7-0.4c1,0.4,2,0.8,3.2,0.8c3.7,0,6.6-2.8,6.6-6.3
		s-2.9-6.4-6.6-6.4c-1.5,0-2.8,0.4-3.9,1.2l-0.4-0.1c1.2-1,2.7-1.5,4.5-1.5C43.6,34.1,46.8,37.2,46.8,41z"/>
</g>
</svg>
